<?xml version="1.0" standalone="no"?>
<!DOCTYPE svg PUBLIC "-//W3C//DTD SVG 20010904//EN"
 "http://www.w3.org/TR/2001/REC-SVG-20010904/DTD/svg10.dtd">
<svg version="1.0" xmlns="http://www.w3.org/2000/svg"
 width="512.000000pt" height="512.000000pt" viewBox="0 0 512.000000 512.000000"
 preserveAspectRatio="xMidYMid meet">

<g transform="translate(0.000000,512.000000) scale(0.100000,-0.100000)"
fill="#000000" stroke="none">
<path d="M2289 5091 c-43 -44 -39 -75 19 -129 26 -25 38 -42 27 -38 -11 4 -54
12 -96 19 -68 9 -80 9 -103 -7 -75 -49 -46 -154 43 -157 92 -3 85 -15 -19 -33
-405 -70 -781 -263 -1055 -540 -127 -129 -218 -257 -299 -421 -126 -255 -166
-448 -166 -810 0 -365 -23 -671 -62 -855 -26 -122 -51 -188 -146 -385 l-77
-160 0 -115 c0 -95 4 -127 24 -185 49 -143 123 -256 249 -377 227 -219 531
-358 932 -427 90 -16 305 -41 353 -41 4 0 7 -65 7 -145 0 -139 1 -147 23 -169
17 -17 70 -34 214 -70 115 -29 200 -45 212 -41 35 11 61 46 61 81 0 59 -22 72
-185 113 l-150 37 -3 96 -3 95 183 6 c189 6 330 22 528 58 63 12 124 22 134
23 16 1 28 -21 63 -109 24 -60 53 -118 65 -127 18 -16 44 -18 225 -18 203 0
204 0 228 25 32 31 32 75 1 112 l-24 28 -160 3 -160 3 -27 66 c-14 36 -25 67
-23 68 2 2 48 20 103 40 617 226 1015 663 1175 1290 50 197 70 355 77 607 l6
208 26 17 c93 60 206 199 268 329 33 68 38 88 38 149 -1 81 -23 132 -81 189
-71 69 -219 115 -335 104 l-48 -5 -31 91 c-42 120 -114 271 -179 376 -263 423
-669 690 -1186 780 -60 10 -138 22 -171 25 l-61 7 20 41 c11 23 22 70 25 105
4 56 2 65 -18 87 -23 25 -68 33 -105 19 -22 -9 -45 -57 -45 -94 0 -16 -4 -30
-10 -30 -5 0 -10 4 -10 9 0 22 -93 130 -145 169 -70 51 -104 54 -146 13z m391
-491 c727 -52 1230 -418 1473 -1070 159 -426 199 -1041 100 -1515 -74 -354
-210 -613 -442 -845 -188 -188 -372 -303 -641 -402 -502 -185 -1230 -223
-1755 -91 -461 115 -803 381 -881 686 -28 106 -17 155 74 345 161 335 185 478
202 1172 10 406 17 467 71 637 170 529 654 930 1270 1053 188 37 324 45 529
30z m1862 -1290 c21 -6 51 -22 68 -36 24 -21 30 -33 30 -66 0 -52 -45 -146
-107 -222 -59 -73 -73 -79 -73 -33 0 35 -45 315 -56 350 -5 15 2 17 48 17 29
0 70 -5 90 -10z"/>
<path d="M3663 3750 c-23 -5 -54 -15 -70 -24 -41 -21 -100 -85 -118 -128 -15
-38 -20 -113 -9 -143 10 -25 62 -47 94 -40 38 8 57 32 69 85 12 53 41 80 85
80 41 0 75 -34 83 -84 13 -80 99 -109 151 -50 26 29 28 61 7 130 -19 66 -64
117 -128 147 -63 30 -108 38 -164 27z"/>
<path d="M2250 3649 c-91 -41 -160 -139 -160 -227 0 -120 154 -126 173 -6 8
47 30 71 75 80 26 5 36 1 62 -24 16 -17 30 -40 30 -52 0 -78 91 -119 145 -65
52 51 18 188 -63 255 -73 60 -180 76 -262 39z"/>
<path d="M2905 3488 c-34 -20 -44 -41 -45 -93 0 -178 114 -325 253 -325 40 0
87 49 87 90 0 38 -39 80 -75 80 -31 0 -75 41 -75 70 0 19 6 20 93 20 87 0 95
2 117 25 34 37 33 90 -4 121 -26 23 -33 24 -179 24 -95 0 -159 -5 -172 -12z"/>
<path d="M3922 3224 c-51 -35 -46 -111 9 -139 34 -18 125 -19 159 -2 53 27 62
96 18 137 -28 26 -151 29 -186 4z"/>
<path d="M2035 3045 c-25 -24 -32 -65 -19 -100 16 -40 137 -61 194 -32 55 28
64 94 18 137 -18 16 -35 20 -95 20 -65 0 -77 -3 -98 -25z"/>
<path d="M1259 2976 c-144 -39 -213 -150 -212 -346 0 -178 32 -260 100 -260
73 0 102 45 84 130 -15 72 -14 204 3 244 30 72 109 88 187 37 56 -36 86 -69
143 -157 25 -40 53 -74 62 -78 56 -22 124 16 124 70 0 68 -137 248 -237 312
-51 32 -140 62 -182 61 -14 0 -47 -6 -72 -13z"/>
</g>
</svg>
